HIERARCHY
ROOT Hips
{
	OFFSET -14.64140 90.27770 -84.91600
	CHANNELS 6 Xposition Yposition Zposition Zrotation Xrotation Yrotation
	JOINT Spine
	{
		OFFSET 0.00000 13.20850 -1.60436
		CHANNELS 3 Zrotation Xrotation Yrotation
		JOINT Spine1
		{
			OFFSET 0.00000 8.61716 0.00000
			CHANNELS 3 Zrotation Xrotation Yrotation
			JOINT Spine2
			{
				OFFSET 0.00000 8.61717 0.00000
				CHANNELS 3 Zrotation Xrotation Yrotation
				JOINT Spine3
				{
					OFFSET 0.00000 8.61717 0.00000
					CHANNELS 3 Zrotation Xrotation Yrotation
					JOINT Neck
					{
						OFFSET 0.00000 11.07920 1.10792
						CHANNELS 3 Zrotation Xrotation Yrotation
						JOINT Neck1
						{
							OFFSET 0.00000 7.08032 0.00000
							CHANNELS 3 Zrotation Xrotation Yrotation
							JOINT Head
							{
								OFFSET 0.00000 7.08031 0.00000
								CHANNELS 3 Zrotation Xrotation Yrotation
								End site
								{
									OFFSET 0.00000 0.00000 0.00000
								}
							}
						}
					}
					JOINT RightShoulder
					{
						OFFSET -0.01000 7.91373 5.19711
						CHANNELS 3 Zrotation Xrotation Yrotation
						JOINT RightArm
						{
							OFFSET -18.41580 0.00000 0.00000
							CHANNELS 3 Zrotation Xrotation Yrotation
							JOINT RightForeArm
							{
								OFFSET -29.11090 0.00000 0.00000
								CHANNELS 3 Zrotation Xrotation Yrotation
								JOINT RightHand
								{
									OFFSET -24.65040 0.00000 0.00000
									CHANNELS 3 Zrotation Xrotation Yrotation
									JOINT RightHandThumb1
									{
										OFFSET -5.35114 -0.85590 3.97906
										CHANNELS 3 Zrotation Xrotation Yrotation
										JOINT RightHandThumb2
										{
											OFFSET -4.52789 0.00000 0.00000
											CHANNELS 3 Zrotation Xrotation Yrotation
											JOINT RightHandThumb3
											{
												OFFSET -2.46976 0.00000 0.00000
												CHANNELS 3 Zrotation Xrotation Yrotation
												End site
												{
													OFFSET 0.00000 0.00000 0.00000
												}
											}
										}
									}
									JOINT RightHandIndex1
									{
										OFFSET -14.26970 0.00000 2.88139
										CHANNELS 3 Zrotation Xrotation Yrotation
										JOINT RightHandIndex2
										{
											OFFSET -5.48836 0.00000 0.00000
											CHANNELS 3 Zrotation Xrotation Yrotation
											JOINT RightHandIndex3
											{
												OFFSET -3.01859 0.00000 0.00000
												CHANNELS 3 Zrotation Xrotation Yrotation
												End site
												{
													OFFSET 0.00000 0.00000 0.00000
												}
											}
										}
									}
									JOINT RightHandMiddle1
									{
										OFFSET -14.26970 0.00000 -0.09147
										CHANNELS 3 Zrotation Xrotation Yrotation
										JOINT RightHandMiddle2
										{
											OFFSET -6.17441 0.00000 0.00000
											CHANNELS 3 Zrotation Xrotation Yrotation
											JOINT RightHandMiddle3
											{
												OFFSET -3.56743 0.00000 0.00000
												CHANNELS 3 Zrotation Xrotation Yrotation
												End site
												{
													OFFSET 0.00000 0.00000 0.00000
												}
											}
										}
									}
									JOINT RightHandRing1
									{
										OFFSET -12.69180 0.00000 -3.06433
										CHANNELS 3 Zrotation Xrotation Yrotation
										JOINT RightHandRing2
										{
											OFFSET -5.62556 0.00000 0.00000
											CHANNELS 3 Zrotation Xrotation Yrotation
											JOINT RightHandRing3
											{
												OFFSET -3.56744 0.00000 0.00000
												CHANNELS 3 Zrotation Xrotation Yrotation
												End site
												{
													OFFSET 0.00000 0.00000 0.00000
												}
											}
										}
									}
									JOINT RightHandPinky1
									{
										OFFSET -11.11390 0.00000 -6.03719
										CHANNELS 3 Zrotation Xrotation Yrotation
										JOINT RightHandPinky2
										{
											OFFSET -4.52789 0.00000 0.00000
											CHANNELS 3 Zrotation Xrotation Yrotation
											JOINT RightHandPinky3
											{
												OFFSET -2.46976 0.00000 0.00000
												CHANNELS 3 Zrotation Xrotation Yrotation
												End site
												{
													OFFSET 0.00000 0.00000 0.00000
												}
											}
										}
									}
								}
							}
						}
					}
					JOINT LeftShoulder
					{
						OFFSET 0.01000 7.91373 5.19711
						CHANNELS 3 Zrotation Xrotation Yrotation
						JOINT LeftArm
						{
							OFFSET 18.41580 0.00000 0.00000
							CHANNELS 3 Zrotation Xrotation Yrotation
							JOINT LeftForeArm
							{
								OFFSET 29.11090 0.00000 0.00000
								CHANNELS 3 Zrotation Xrotation Yrotation
								JOINT LeftHand
								{
									OFFSET 24.65040 0.00000 0.00000
									CHANNELS 3 Zrotation Xrotation Yrotation
									JOINT LeftHandThumb1
									{
										OFFSET 5.35114 -0.85590 3.97906
										CHANNELS 3 Zrotation Xrotation Yrotation
										JOINT LeftHandThumb2
										{
											OFFSET 4.52789 0.00000 0.00000
											CHANNELS 3 Zrotation Xrotation Yrotation
											JOINT LeftHandThumb3
											{
												OFFSET 2.46977 0.00000 0.00000
												CHANNELS 3 Zrotation Xrotation Yrotation
												End site
												{
													OFFSET 0.00000 0.00000 0.00000
												}
											}
										}
									}
									JOINT LeftHandIndex1
									{
										OFFSET 14.26970 0.00000 2.88139
										CHANNELS 3 Zrotation Xrotation Yrotation
										JOINT LeftHandIndex2
										{
											OFFSET 5.48836 0.00000 0.00000
											CHANNELS 3 Zrotation Xrotation Yrotation
											JOINT LeftHandIndex3
											{
												OFFSET 3.01859 0.00000 0.00000
												CHANNELS 3 Zrotation Xrotation Yrotation
												End site
												{
													OFFSET 0.00000 0.00000 0.00000
												}
											}
										}
									}
									JOINT LeftHandMiddle1
									{
										OFFSET 14.26970 0.00000 -0.09147
										CHANNELS 3 Zrotation Xrotation Yrotation
										JOINT LeftHandMiddle2
										{
											OFFSET 6.17440 0.00000 0.00000
											CHANNELS 3 Zrotation Xrotation Yrotation
											JOINT LeftHandMiddle3
											{
												OFFSET 3.56744 0.00000 0.00000
												CHANNELS 3 Zrotation Xrotation Yrotation
												End site
												{
													OFFSET 0.00000 0.00000 0.00000
												}
											}
										}
									}
									JOINT LeftHandRing1
									{
										OFFSET 12.69180 0.00000 -3.06433
										CHANNELS 3 Zrotation Xrotation Yrotation
										JOINT LeftHandRing2
										{
											OFFSET 5.62556 0.00000 0.00000
											CHANNELS 3 Zrotation Xrotation Yrotation
											JOINT LeftHandRing3
											{
												OFFSET 3.56744 0.00000 0.00000
												CHANNELS 3 Zrotation Xrotation Yrotation
												End site
												{
													OFFSET 0.00000 0.00000 0.00000
												}
											}
										}
									}
									JOINT LeftHandPinky1
									{
										OFFSET 11.11390 0.00000 -6.03719
										CHANNELS 3 Zrotation Xrotation Yrotation
										JOINT LeftHandPinky2
										{
											OFFSET 4.52789 0.00000 0.00000
											CHANNELS 3 Zrotation Xrotation Yrotation
											JOINT LeftHandPinky3
											{
												OFFSET 2.46976 0.00000 0.00000
												CHANNELS 3 Zrotation Xrotation Yrotation
												End site
												{
													OFFSET 0.00000 0.00000 0.00000
												}
											}
										}
									}
								}
							}
						}
					}
					JOINT pCube4
					{
						OFFSET 0.00000 10.91090 1.10792
						CHANNELS 3 Zrotation Xrotation Yrotation
						End site
						{
							OFFSET 0.00000 0.00000 0.00000
						}
					}
				}
			}
		}
	}
	JOINT RightUpLeg
	{
		OFFSET -9.98441 0.00000 0.00000
		CHANNELS 3 Zrotation Xrotation Yrotation
		JOINT RightLeg
		{
			OFFSET 0.00000 -42.11790 0.00000
			CHANNELS 3 Zrotation Xrotation Yrotation
			JOINT RightFoot
			{
				OFFSET 0.00000 -45.00020 -0.00001
				CHANNELS 3 Zrotation Xrotation Yrotation
				JOINT RightForeFoot
				{
					OFFSET 0.00000 -3.74820 0.00000
					CHANNELS 3 Zrotation Xrotation Yrotation
					JOINT RightToeBase
					{
						OFFSET 0.00000 0.06325 14.43120
						CHANNELS 3 Zrotation Xrotation Yrotation
						End site
						{
							OFFSET 0.00000 0.00000 0.00000
						}
					}
				}
			}
		}
	}
	JOINT LeftUpLeg
	{
		OFFSET 9.98441 0.00000 0.00000
		CHANNELS 3 Zrotation Xrotation Yrotation
		JOINT LeftLeg
		{
			OFFSET 0.00000 -42.11800 0.00000
			CHANNELS 3 Zrotation Xrotation Yrotation
			JOINT LeftFoot
			{
				OFFSET 0.00000 -45.00070 0.00000
				CHANNELS 3 Zrotation Xrotation Yrotation
				JOINT LeftForeFoot
				{
					OFFSET 0.00000 -3.74824 0.00000
					CHANNELS 3 Zrotation Xrotation Yrotation
					JOINT LeftToeBase
					{
						OFFSET 0.00000 0.06325 14.43110
						CHANNELS 3 Zrotation Xrotation Yrotation
						End site
						{
							OFFSET 0.00000 0.00000 0.00000
						}
					}
				}
			}
		}
	}
}
MOTION
Frames: 4
Frame Time: 0.050000
-0.019767384456465295 0.03770676666800024 0.03882322494571598 -0.04245444495771359 -0.0004543973433174256 -0.015240060757716443 -3.5982182748849056 7.38586966086007 -0.649154867872017 -0.6367959810465259 2.9160369932549624 0.3537244997508042 -0.7886273324246917 0.2534936131834258 -1.8893700941030507 -0.3196608043523712 0.35161818306604775 -1.085276264316483 -0.534253112373178 8.689725639192941 0.33273963682930885 -0.13192763152731096 -0.6473227911379664 -1.4266045145663613 -0.3097099326748117 -14.287335764642235 -0.0035778546433458576 4.033930043691115 -0.13877367162745524 -10.416737664659086 70.70454410555696 -7.318801196023295 30.984639466843774 39.359774173001725 15.3762192745412 103.85685950333949 21.014760792477663 -0.1242270670808284 -12.125764519082793 4.532282860870116 -0.08961139696492984 -1.6418014106116907 -0.035540386739456635 -0.016774680188273754 -56.214850786941064 -0.010482194005749538 -0.002700564230070015 -56.233570292980936 -38.803465498668416 0.029502912072573103 -0.03386394424086807 0.023797460844929282 0.004770658776675108 0.03503704085915717 0.012991252814829407 0.04179654650028914 -0.018447728149348596 -36.703788621775665 0.03957687267879778 -0.01364481840252951 0.00460902275175173 -0.01525303724400144 -0.032676393967051735 0.02022894920300791 -0.0018669436887653117 -0.009797773053702094 -19.803069968038503 -0.038039027671849586 0.02192315402586745 -0.027061933918319573 0.008104983119267734 -0.03310060280774826 -0.03437307428961095 -0.030233044236230716 -0.0023259677788491505 24.076530555237195 -0.023913548969337527 -0.014654095372875594 28.885065102156467 0.02220893264055217 0.00936982971239443 28.842177097333593 0.03688856501398541 0.017393664864954524 -0.8659774376959823 0.37266957156775515 8.84392533513997 -59.65951522675483 16.620830412651948 -37.21821639153797 -25.1187113357185 12.81362596356094 -101.94780634494978 -17.267344022031843 1.1231924625916991 -1.82976740446572 -0.5186699471937652 0.03983796689116245 -8.155698330419686 -0.022178694440684352 0.02357142990220186 44.54043167443068 0.005503940022585798 -0.0459166840019909 44.605128378382034 12.49905490787384 -0.0048384419616762635 -0.04461775701437927 -0.00013447437397155022 -0.007060019075735875 -0.028077364426994735 -0.020937410472928512 -0.003654177337648477 -0.015119020704854904 11.089168736208793 0.01544173260220438 -0.021517978197201377 -0.030124853949212427 0.012927388880392545 0.015169982958820511 -0.0438601047795542 0.0005247620961406257 0.03824070528077711 4.819399120273134 -0.007773490141341459 -0.006724755848380107 -0.047866241343386955 0.025476562311807296 -0.02195184908654065 0.016867060284288332 0.0428991848462413 -0.02073642703411389 -5.62426338524935 0.018725699986952376 0.01937176691026984 -6.76037193435247 -0.012188828695400033 0.04694174397073064 -6.734929333165262 0.0028176281144462875 0.006475407867861339 -0.01528707181260996 0.003952289067603294 0.014335770789138887 8.04450411053814 3.4519841705473864 -19.26396558352686 -0.03533475440980211 10.364239457411697 -0.026233465558308865 -5.601778224625006 -15.66054565138217 3.2186760926014815 -0.04303615703048856 -0.04409553603391332 -0.04949493575904017 0.028478145447458213 4.66385181064881 0.03187638638607471 12.412782737696695 -8.224437451971186 6.923133510113778 0.011422041912999009 46.376701410217684 -0.04736294488690642 -4.3428021225179485 -14.750993895899075 -3.8654239378538247 -0.04649602980425571 0.047139387161997226 0.011791110715350868 0.010953680705548004 -10.702242560399709 0.003392318748547586 
0.03742773414277791 0.0067805368789984515 0.0356237169989375 -0.04373565672714696 -0.03385436476198229 -0.007278197051525128 -3.5430052295080205 7.430993814744696 -0.6710500911351762 -0.637276190106515 2.9765952411297425 0.34919210374667664 -0.7691496430621567 0.27285335488794604 -1.9424602967940725 -0.21854930207815132 0.39072951976299775 -1.0858711707417545 -0.5456039026746102 8.721595457727057 0.3272144189711726 -0.19833902373815587 -0.6666424998901559 -1.3399196363830974 -0.3355342334978328 -14.421429243963562 -0.02411532948997567 4.05642600409389 -0.12140517333808445 -10.474671909408718 70.97250579020941 -6.909564415400105 31.63268927830667 42.991867501929875 16.218839445469246 102.99486987453827 21.1854620891078 -0.02852412799612556 -12.61557235890104 4.499850448581948 -0.14636958770491576 -1.5896545872599626 0.013051704562388758 0.0009299842581983822 -56.241221106464124 -0.00015544676644807515 0.03946667103823118 -56.26904484248374 -38.72895331125794 0.049190309518868255 -0.007924045367005316 0.01312555504008224 -0.023485935754814218 0.04123264435877858 -0.027301656405099482 0.008156019272652214 -0.023756435012249943 -36.650677655670705 -0.02604431535786644 -0.0019490878734595846 -0.037572327128807044 0.0254560966437405 -0.041851106704944116 0.030899837646103868 -0.02335511266654933 -0.0035677882556897963 -19.723926920828095 -0.01591463806112955 -0.006374168531250574 0.027021756950551687 0.01583804107838743 0.0023797233504435178 0.0015604498270181488 -0.02025599487199962 -0.04063273921132461 24.072920227728318 0.019315158417761456 0.008609636815614262 28.88028983843342 0.009843704343241607 -0.01414605773207043 28.87039448446692 -0.00047276123857767154 -0.0008799355166193378 -0.7697272682140677 0.44140193949868156 8.814197142790615 -58.73812516298452 17.397094248944757 -38.63517653799704 -26.070345197737264 14.141393723773922 -100.5109627634538 -18.590359534660074 1.413313314071355 -2.0185581110234696 -0.5187049531006157 0.07405307752076731 -8.07920931259753 0.020497731890372583 0.04407652413239217 44.57424115291661 0.023782854169362024 -0.024451692491582272 44.610390910414424 12.490915075198933 0.027410248374057648 0.007959530601140644 -0.004629481228521379 -0.008221967445558687 -0.03279944027237164 0.0364423453735393 0.02371487341717685 0.0367815779143788 11.142450946458123 -0.047189684378009425 0.014443843106893174 -0.02469482357091459 0.04232736763975294 -0.03129731001776832 0.00787197447617476 -0.021837009434082257 -0.02320809158745237 4.781020458060795 -0.04506839416490446 0.02657475739556261 0.04694974556872553 0.027886985859434017 0.028865043889193524 -0.005642522569256512 0.04304675534363528 0.0287002588297468 -5.639814392871817 0.011348197818464974 0.0015258441308364868 -6.688491497985675 -0.03977106638856831 -0.015141538389904 -6.741655795856041 -0.0029679314720704704 -0.04495017857985413 -0.015099661756282787 -0.03206250269137113 0.03981533881228619 8.063619773098203 3.469819878101936 -19.214548007561167 -0.039360424005650575 10.44147507946013 0.01657363464753301 -5.614714198359169 -15.675324542394836 3.1542021086368663 0.024316277247765566 0.0037287591666293786 0.022317392186791584 -0.01353043861146135 4.719412757352696 0.004198133817834637 12.443619325318156 -8.1996781220954 6.904589417292266 0.033315224738842325 46.42486785289815 0.014783058655181853 -4.295848772256049 -14.793710975474813 -3.826038622686208 0.027752504968665093 0.00888179267959188 -0.029976586585562202 -0.023066255067385973 -10.748920175759183 -0.008284696557575662 
-0.03561902817166112 -0.03460189106839029 0.021438372244522986 -0.01305832734262995 -0.012334875721900819 0.023417014521220043 -3.449103509989303 7.407425700290082 -0.7128261379865511 -0.676800708714471 2.9941222127418405 0.3699455741964931 -0.74344647000304 0.3820711072573972 -1.9921056172419072 -0.1200656982706858 0.4380986195119474 -1.0361038697078295 -0.5478702997648583 8.815977875150981 0.3137667512298793 -0.23038678372409102 -0.7227395251349288 -1.4360850542237054 -0.3045125337225085 -14.46412761320024 -0.002174537959858676 4.190961178228115 -0.2588628255768915 -10.535390238791084 70.63188379625043 -5.856116544059652 31.38145238921979 45.12189519112766 16.454389737901565 102.1734491239939 21.260685309903845 -0.04304512687433425 -12.88245378050961 4.517271884333883 -0.13728360492748357 -1.576460985526153 0.025212000510951287 -0.009553415491775326 -56.208594602289466 0.025949483775642615 0.022693004295215587 -56.246271447620536 -38.776732112827595 -0.03796699475108346 0.02244552022411428 0.0022488115025738604 -0.005778230863103662 -0.011359666165156818 0.010703324171104226 -0.0371530858955881 0.007106701563079962 -36.67453980628864 -0.04533503749029732 -0.0275943486225626 -0.008713639100264015 0.03981808721284938 0.0392577021077398 0.014314649543774621 0.01872016470430426 -0.01861208431105566 -19.774293442913393 0.006150470485062039 -0.026929101087014455 -0.03375337216387267 -0.04463950254880715 0.016529410185029673 -0.03515276670792936 -0.027957843129148473 0.03611672781503472 24.070806627486146 0.035345579568408995 0.009478887424966243 28.878721470136735 0.0051149019010726295 0.007758391387594782 28.869919175874752 -0.026004184818626326 -0.016126097813128352 -0.8770765126800748 0.37470775855831695 8.797547284669042 -57.63567694422966 18.72073927849565 -39.07851319873082 -25.345168018349554 14.539897937207847 -98.96225097818677 -19.58726664791716 1.6565986058914386 -2.120672590765888 -0.48517304076627515 0.09554121133414188 -8.08547985406622 -0.0033876656306564804 0.009066576548814128 44.52841336226946 -0.0005341243940407558 0.049010189705289295 44.57898952918088 12.451182180511601 0.013868245987483317 -0.007362301912061632 0.0003981425208050582 -0.04161054593380046 -0.007426324699266134 -0.036278188726547644 0.04600449641848301 -0.041746670152145705 11.063727318380048 -7.623179787988748e-05 0.026203262813928506 -0.03739435862663591 -0.04687705285144601 -0.040634415013920414 -0.02918894448466174 -0.029013481073494576 0.0007234678425146941 4.733801902072416 -0.004508671866393904 -0.005926818623318532 -0.012607352708185086 0.03274818010982927 -0.03562008943462929 0.04481534954750607 -0.034452984878489995 0.0384051489179272 -5.571656871210468 0.033823374696650914 -0.006871547161750088 -6.751129923123281 -0.0009306804199978304 -0.013336550617361808 -6.690154171955377 -0.02720851428015741 -0.000980611173708711 -0.028833139146455845 0.00324819848720384 -0.026935437358894934 8.008893113655644 3.5141619161958344 -19.19427991229976 0.041206994790760385 10.421439717827965 0.03699473326451207 -5.631109573675709 -15.661421613596904 3.175139769851745 0.03261448509067119 -0.014188117906552672 -0.024558047132567016 -0.025042004771524646 4.6784917799995425 0.02993702525688341 12.439145273201715 -8.19984313512236 6.878212699734355 0.004134335826493346 46.388856657574536 -0.04227806803571966 -4.323037082383009 -14.735846231402668 -3.864851440255921 -0.02294574603988337 0.004644785199763526 -0.035992111996097156 -0.008985320552020146 -10.707516926481441 -0.016284512647197984 
-0.04194513096585279 -0.022039133638151857 -0.03429224346581102 0.016065948003701574 -0.037288988923646064 0.014678570988203988 -3.4364927862595733 7.3075613344841965 -0.7565024224624658 -0.6423977082701038 3.040467550927991 0.3465060301181277 -0.7184183812150519 0.4257384062988305 -2.1204316260030813 0.038319952832596926 0.47088089870523836 -1.084363896766146 -0.5490952870810093 8.7763006478616 0.2436352220835969 -0.20232280831142596 -0.8410124180893794 -1.4365443768301636 -0.3638699199127558 -14.602808800471955 -0.031910565037513924 4.585472386274663 -0.37167236147196003 -10.602334042809792 69.99328192341964 -4.060346837260984 30.037221093434646 47.18115473846747 16.365419079715085 101.80959634821258 21.470514133009274 0.012392442312125412 -13.239554127220057 4.5077639284462645 -0.0873314203550548 -1.619481440547556 -0.003998290608080705 0.028938639324170734 -56.25579022125781 0.006387345717175084 -0.028860228305208485 -56.27215617871297 -38.79621415192786 -0.04279162633576031 0.0364544525745952 0.006250189355122275 -0.012058806901564722 0.024763528403939312 -0.027823139889760044 -0.019542807321398695 0.047401677781919095 -36.651208096693615 -0.0007384695589879018 0.03194740524502419 0.02863466303178433 0.036851820291009064 -0.011464928015064216 0.028220324135350656 0.00464900196824802 0.024098533790834098 -19.777636581471764 -0.0373587444863076 0.02055884723883192 0.022657360690069517 0.023887510023463215 -0.011014087394830669 -0.042882073533856147 -0.025697056658855428 0.0487983740983739 24.025513663836236 0.007667584369599991 0.03288967044061157 28.88674061447328 0.02947172033880034 0.04114496588605079 28.869531586527465 0.0008197251605191392 -0.042878216969761775 -1.0909576682786206 0.3121426293998613 8.807390800608305 -56.32200517245727 20.6740241293402 -38.86151278805349 -24.184477429076384 14.434528432930218 -98.14156970652346 -20.397849860610204 1.8258890030957844 -2.2212711950357007 -0.46389651921658065 0.03217697566377826 -8.141371268337933 -0.03547820768126546 0.04681664349946982 44.52304801179932 -0.047431520976167325 -0.037671251167183235 44.5882378771885 12.456789175863289 -0.021966227713449672 0.008939558397492345 -0.00020541358559326747 0.03413487219998092 -0.02438649480664231 -0.012843337641216217 0.004281014217127104 -0.016641664807009023 11.139334713155755 0.02263854955643517 -0.03336569437024983 0.00018837263562245725 0.014212217707179514 -0.007558144581240227 -0.019374541760513626 0.023592343198099303 0.036960611891008244 4.731608137718666 0.03557985015562902 -0.04597735280282645 -0.013756102949073501 -0.028582786770186264 -0.03686694053614942 0.04988391975847562 -0.03070877592824183 -0.02317902254665571 -5.639056598668845 0.03137249329242623 0.006069145777974313 -6.748803500422204 -0.013845502086198678 0.0024875874509847937 -6.7031182329717405 -0.02442556582216548 0.014305825630093761 -0.022534160040304285 0.0213411532099853 -0.012689985619156982 8.058694399488218 3.48023604222713 -19.262812196119015 0.013809437789592092 10.365932854418741 -0.010923021196267629 -5.579079834076892 -15.690179791819997 3.239599520406041 0.03036364334803936 -0.04583222878909183 0.023442312565704067 -0.04292149178224922 4.681199766120009 -0.033243381996672934 12.500904348287959 -8.280646225124428 6.914286325990892 0.02155706455146211 46.357055333487175 -0.0027587802880768937 -4.347433463491746 -14.711103927819455 -3.867996653754137 -0.029023863468043927 -0.0037248333565270985 0.03415670647775455 0.013678631520109341 -10.776271760505676 0.013499387539928085 
